<svg xmlns="http://www.w3.org/2000/svg" width="44.901" height="44.899" viewBox="0 0 44.901 44.899"><g transform="translate(0 -0.02)"><path d="M-154.1-274.1H-199v-23.1h2.3l.4-1.1h.8l.4,1.1h17.6v-1l.7,1h4.9v-.6a.5.5,0,0,0,.2.1.505.505,0,0,1,.2.1.51.51,0,0,0,.2.1.5.5,0,0,1,.2.1,1.277,1.277,0,0,0,.6.1h3.6l.4-1.1h.8l.4,1.1h4.9v-1l.8,1.1h3.4v-7.9h-3.7v1.1l-.7-1.1h-3.2v1.4l-.6-1.4h-5.9a1.265,1.265,0,0,0-.3.05,1.267,1.267,0,0,1-.3.05.657.657,0,0,0-.357.121c-.044.026-.09.052-.143.078a1.753,1.753,0,0,1-.248.1,1.712,1.712,0,0,0-.252.1v-.5h-16.9l-.5,1.3-.5-1.3h-4v1.4l-.6-1.4h-3.2l-1.4,3.4,0-17.3h44.9v24.4h-27.5l-.7,1-.7-1h-8v7.9h8l.7-1,.7,1h5v-1.7h-.2l.02,0a4.814,4.814,0,0,0,1.78-.3v2.1h3.6v-1l.7,1h14.9c.184-.061.368-.114.547-.164a4.678,4.678,0,0,0,1.153-.436v13.1Z" transform="translate(199 319.02)" fill="#006fcf"/><path d="M43.2,29.8H40.5v1.1h2.6a1.655,1.655,0,0,0,1.8-1.7,1.4,1.4,0,0,0-1.6-1.5H42.1a.5.5,0,0,1,0-1h2.3l.5-1.1H42.2a1.636,1.636,0,0,0-1.8,1.6A1.4,1.4,0,0,0,42,28.7h1.2a.472.472,0,0,1,.5.5c.1.4-.1.6-.5.6Zm-4.9,0H35.6v1.1h2.6A1.655,1.655,0,0,0,40,29.2a1.4,1.4,0,0,0-1.6-1.5H37.2a.5.5,0,0,1,0-1h2.3l.5-1.1H37.3a1.636,1.636,0,0,0-1.8,1.6,1.4,1.4,0,0,0,1.6,1.5h1.2a.472.472,0,0,1,.5.5.466.466,0,0,1-.5.6Zm-3.5-3.2V25.5H30.6v5.3h4.2V29.7h-3V28.6h2.9V27.5H31.8v-1h3v.1Zm-6.8,0c.5,0,.7.3.7.6s-.2.6-.7.6H26.5V26.5l1.5.1Zm-1.5,2.3h.6l1.6,1.9h1.5l-1.8-2a1.6,1.6,0,0,0,1.4-1.6A1.655,1.655,0,0,0,28,25.5H25.2v5.3h1.2l.1-1.9Zm-3.2-1.6a.632.632,0,0,1-.7.7H21V26.6h1.5a.713.713,0,0,1,.8.7Zm-3.5-1.8v5.3H21V29h1.6a1.76,1.76,0,0,0,1.9-1.8,1.733,1.733,0,0,0-1.8-1.8l-2.9.1ZM18,30.8h1.5l-2.1-2.7,2.1-2.6H18l-1.3,1.7-1.3-1.7H13.9L16,28.1l-2.1,2.6h1.5L16.7,29,18,30.8Zm-4.5-4.2V25.5H9.3v5.3h4.2V29.7h-3V28.6h2.9V27.5H10.5v-1h3Zm24.3-9.4,2.1,3.2h1.5V15.1H40.2v3.5l-.3-.5-1.9-3H36.4v5.3h1.2V16.8l.2.4Zm-5.2-.1L33,16l.4,1.1.5,1.2H32.1l.5-1.2Zm2.1,3.3H36l-2.3-5.3H32.1l-2.3,5.3h1.3l.5-1.1h2.6l.5,1.1Zm-5.6,0,.5-1.1h-.3a1.342,1.342,0,0,1-1.4-1.5v-.1a1.342,1.342,0,0,1,1.4-1.5h1.3V15.1H29.2a2.389,2.389,0,0,0-2.5,2.6v.1A2.317,2.317,0,0,0,29.1,20.4Zm-4.5,0h1.2V15.2H24.6ZM22,16.2c.5,0,.7.3.7.6s-.2.6-.7.6H20.5V16.1l1.5.1Zm-1.5,2.3h.6l1.6,1.9h1.5l-1.8-2a1.6,1.6,0,0,0,1.4-1.6A1.655,1.655,0,0,0,22,15.1H19.2v5.3h1.2l.1-1.9Zm-2.2-2.3V15.1H14.1v5.3h4.2V19.3h-3V18.2h2.9V17.1H15.3v-1h3ZM9.2,20.4h1.1l1.5-4.3v4.3H13V15.1H11L9.8,18.7,8.6,15.1h-2v5.3H7.8V16.1l1.4,4.3ZM2.7,17.1,3.1,16l.4,1.1L4,18.3H2.2l.5-1.2Zm2.1,3.3H6.1L3.8,15.1H2.3L0,20.4H1.3l.5-1.1H4.4l.4,1.1Z" transform="translate(0 0.12)" fill="#006fcf"/></g></svg>