<?xml version="1.0" encoding="UTF-8"?>
<svg fill="#FFFFFF" width="100pt" height="100pt" version="1.1" viewBox="0 0 100 100" xmlns="http://www.w3.org/2000/svg">
 <g>
  <path d="m88.301 33.801c0-2.6523-1.0547-5.1953-2.9297-7.0703s-4.418-2.9297-7.0703-2.9297h-2.6016v-3.9023c0-1.1016-0.89453-2-2-2s-2 0.89844-2 2v3.8984l-43.398 0.003906v-3.9023c0-1.1016-0.89453-2-2-2s-2 0.89844-2 2v3.8984l-2.6016 0.003906c-5.5234 0-10 4.4766-10 10v38.301c0 2.6523 1.0547 5.1953 2.9297 7.0703s4.418 2.9297 7.0703 2.9297h56.602c2.6523 0 5.1953-1.0547 7.0703-2.9297s2.9297-4.418 2.9297-7.0703zm-4 38.398c0 3.3164-2.6875 6-6 6h-56.602c-3.3125 0-6-2.6836-6-6v-38.398c0-3.3164 2.6875-6 6-6h2.6992v2.8984c0 1.1055 0.89844 2 2 2 1.1055 0 2-0.89453 2-2v-2.8984h43.301v2.8984c0 1.1055 0.89453 2 2 2s2-0.89453 2-2v-2.8984h2.6992c3.3164 0 6 2.6836 6 6z"/>
  <path d="m44.801 40.699h-3.5c-1.1055 0-2 0.89453-2 2s0.89453 2 2 2h3.5c1.1055 0 2-0.89453 2-2s-0.89453-2-2-2z"/>
  <path d="m30.801 40.699h-3.5c-1.1055 0-2 0.89453-2 2s0.89453 2 2 2h3.5c1.1055 0 2-0.89453 2-2s-0.89453-2-2-2z"/>
  <path d="m58.699 40.699h-3.5c-1.1055 0-2 0.89453-2 2s0.89453 2 2 2h3.5c1.1055 0 2-0.89453 2-2s-0.89453-2-2-2z"/>
  <path d="m72.699 40.699h-3.5c-1.1055 0-2 0.89453-2 2s0.89453 2 2 2h3.5c1.1055 0 2-0.89453 2-2s-0.89453-2-2-2z"/>
  <path d="m44.801 52.398h-3.5c-1.1055 0-2 0.89844-2 2 0 1.1055 0.89453 2 2 2h3.5c1.1055 0 2-0.89453 2-2 0-1.1016-0.89453-2-2-2z"/>
  <path d="m30.801 52.398h-3.5c-1.1055 0-2 0.89844-2 2 0 1.1055 0.89453 2 2 2h3.5c1.1055 0 2-0.89453 2-2 0-1.1016-0.89453-2-2-2z"/>
  <path d="m58.699 52.398h-3.5c-1.1055 0-2 0.89844-2 2 0 1.1055 0.89453 2 2 2h3.5c1.1055 0 2-0.89453 2-2 0-1.1016-0.89453-2-2-2z"/>
  <path d="m72.699 52.398h-3.5c-1.1055 0-2 0.89844-2 2 0 1.1055 0.89453 2 2 2h3.5c1.1055 0 2-0.89453 2-2 0-1.1016-0.89453-2-2-2z"/>
  <path d="m44.801 64.102h-3.5c-1.1055 0-2 0.89453-2 2 0 1.1016 0.89453 2 2 2h3.5c1.1055 0 2-0.89844 2-2 0-1.1055-0.89453-2-2-2z"/>
  <path d="m30.801 64.102h-3.5c-1.1055 0-2 0.89453-2 2 0 1.1016 0.89453 2 2 2h3.5c1.1055 0 2-0.89844 2-2 0-1.1055-0.89453-2-2-2z"/>
  <path d="m58.699 64.102h-3.5c-1.1055 0-2 0.89453-2 2 0 1.1016 0.89453 2 2 2h3.5c1.1055 0 2-0.89844 2-2 0-1.1055-0.89453-2-2-2z"/>
  <path d="m72.699 64.102h-3.5c-1.1055 0-2 0.89453-2 2 0 1.1016 0.89453 2 2 2h3.5c1.1055 0 2-0.89844 2-2 0-1.1055-0.89453-2-2-2z"/>
 </g>
</svg>
