<?xml version="1.0" encoding="UTF-8"?>
<svg fill="#FFFFFF" width="100pt" height="100pt" version="1.1" viewBox="0 0 100 100" xmlns="http://www.w3.org/2000/svg">
 <g>
  <path d="m90.219 12.402h-80.438c-5.4023 0-9.7812 4.3789-9.7812 9.7812v55.621c0 5.4023 4.3789 9.7812 9.7812 9.7812h80.438c5.4023 0 9.7812-4.3789 9.7812-9.7812v-55.621c0-5.4023-4.3789-9.7812-9.7812-9.7812zm-32.133 13.695l6.707 12.012-6.6953 11.25c-0.19531 0.33594-0.19531 0.75 0 1.0859l6.707 11.957-6.707 11.293c-0.19531 0.33594-0.19531 0.75 0 1.0859l5.9453 10.629-28.359 0.003906 6.2188-10.426c0.19531-0.33594 0.19531-0.75 0-1.0859l-6.6953-12.012 6.6953-11.227c0.19531-0.33594 0.19531-0.75 0-1.0898l-6.707-12.02 6.707-11.238c0.19531-0.33594 0.19531-0.75 0-1.0898l-5.9258-10.652h28.34l-6.2188 10.438c-0.19922 0.33203-0.20312 0.74609-0.011718 1.0859zm8.457 35l-6.2617-11.184 6.4141-10.75h31.129v21.934zm-33.074-22.195l6.25 11.184-6.4141 10.75h-31.129v-21.934zm-23.688-24.328h23.707l6.2266 11.141-6.5234 11-31.016 0.003906v-14.535c0-4.1992 3.4062-7.6094 7.6055-7.6094zm23.34 48.438c0.027344 0.03125 0.0625 0.058593 0.097656 0.085937 0.070312 0.042969 0.14844 0.074219 0.22656 0.097656l6.2617 11.219-6.5234 11h-23.402c-4.1992 0-7.6055-3.4062-7.6055-7.6094v-14.793zm57.098 22.402h-23.707l-6.2305-11.141 6.5234-11h31.02v14.531c0 2.0195-0.80078 3.9531-2.2266 5.3789-1.4258 1.4297-3.3633 2.2305-5.3789 2.2305zm-23.34-48.426c-0.027344-0.03125-0.0625-0.058593-0.097656-0.085937-0.066406-0.03125-0.14062-0.058594-0.21484-0.078125l-6.2852-11.238 6.5664-11.012h23.371c4.1992 0 7.6055 3.4102 7.6055 7.6094v14.805z"/>
  <path d="m56.977 17.836h-14.5c-0.59766 0-1.0859 0.48828-1.0859 1.0898 0 0.59766 0.48828 1.0859 1.0859 1.0859h14.5c0.60156 0 1.0898-0.48828 1.0898-1.0859 0-0.60156-0.48828-1.0898-1.0898-1.0898z"/>
  <path d="m56.977 79.793h-14.5c-0.59766 0-1.0859 0.48828-1.0859 1.0859 0 0.60156 0.48828 1.0898 1.0859 1.0898h14.5c0.60156 0 1.0898-0.48828 1.0898-1.0898 0-0.59766-0.48828-1.0859-1.0898-1.0859z"/>
 </g>
</svg>
