<?xml version="1.0" encoding="UTF-8"?>
<svg fill="#8566ff" width="100pt" height="100pt" version="1.1" viewBox="0 0 100 100" xmlns="http://www.w3.org/2000/svg">
 <path d="m50 12.5c-9.9453 0-19.484 3.9492-26.516 10.984-7.0352 7.0312-10.984 16.57-10.984 26.516s3.9492 19.484 10.984 26.516c7.0312 7.0352 16.57 10.984 26.516 10.984s19.484-3.9492 26.516-10.984c7.0352-7.0312 10.984-16.57 10.984-26.516s-3.9492-19.484-10.984-26.516c-7.0312-7.0352-16.57-10.984-26.516-10.984zm14.73 46.34c0.78516 0.78125 1.2266 1.8398 1.2266 2.9453 0.003907 1.1094-0.4375 2.1719-1.2188 2.9531s-1.8438 1.2227-2.9492 1.2188c-1.1094 0-2.168-0.44141-2.9492-1.2266l-8.8398-8.8398-8.8398 8.8398c-0.78125 0.78516-1.8398 1.2266-2.9492 1.2266-1.1055 0.003907-2.168-0.4375-2.9492-1.2188s-1.2227-1.8438-1.2188-2.9531c0-1.1055 0.44141-2.1641 1.2266-2.9453l8.8398-8.8398-8.8398-8.8398c-0.79297-0.77734-1.2383-1.8398-1.2422-2.9531-0.003906-1.1094 0.4375-2.1719 1.2227-2.957s1.8477-1.2266 2.957-1.2227c1.1133 0.003906 2.1758 0.44922 2.9531 1.2422l8.8398 8.8359 8.8398-8.8398v0.003906c0.77734-0.79297 1.8398-1.2383 2.9531-1.2422 1.1094-0.003906 2.1719 0.4375 2.957 1.2227s1.2266 1.8477 1.2227 2.957c-0.003906 1.1133-0.44922 2.1758-1.2422 2.9531l-8.8398 8.8398z"/>
</svg>
