<?xml version="1.0" encoding="UTF-8"?>
<svg fill="#FFFFFF" width="100pt" height="100pt" version="1.1" viewBox="0 0 100 100" xmlns="http://www.w3.org/2000/svg">
 <g>
  <path d="m78.824 2.832h-57.648c-7.2266 0-13.105 5.8789-13.105 13.105v68.133c0 7.2266 5.8789 13.105 13.105 13.105h34.645c1.9727 0 3.8594-0.73438 5.3125-2.0664l28.246-25.891c1.6211-1.4883 2.5508-3.6016 2.5508-5.7969v-47.488c0-7.2266-5.8789-13.102-13.105-13.102zm-18.34 85.758v-12.387c0-4.332 3.5234-7.8633 7.8633-7.8633h14.23zm26.203-25.484h-18.34c-7.2266 0-13.105 5.8789-13.105 13.105v15.723l-34.066-0.003906c-4.332 0-7.8633-3.5234-7.8633-7.8633v-68.133c0-4.332 3.5234-7.8633 7.8633-7.8633h57.648c4.332 0 7.8633 3.5234 7.8633 7.8633z"/>
  <path d="m23.797 21.176h41.93v5.2422h-41.93z"/>
  <path d="m23.797 76.203h20.961v5.2422h-20.961z"/>
  <path d="m23.797 57.863h31.445v5.2422h-31.445z"/>
  <path d="m23.797 39.516h52.41v5.2422h-52.41z"/>
 </g>
</svg>
