<?xml version="1.0" encoding="UTF-8"?>
<svg fill="#FFFFFF" width="100pt" height="100pt" version="1.1" viewBox="0 0 100 100" xmlns="http://www.w3.org/2000/svg">
 <path d="m91.102 36.102-39.703-34.602c-0.60156-0.5-1.3008-0.69922-1.8984-0.69922h-0.10156-0.10156c-0.69922 0-1.3984 0.19922-1.8984 0.69922l-39.898 34.602c-0.69922 0.60156-1 1.3984-1 2.3008v48.398c0 6.8984 5.6016 12.5 12.5 12.5h20.398c1.6992 0 3-1.3008 3-3v-34h13.898v34c0 1.6992 1.3008 3 3 3h20.398c6.8984 0 12.5-5.6016 12.5-12.5l0.003907-48.402c0-0.89844-0.39844-1.6992-1.0977-2.2969zm-4.9023 50.598c0 3.6016-2.8984 6.5-6.5 6.5h-17.398v-34c0-1.6992-1.3008-3-3-3h-19.902c-1.6992 0-3 1.3008-3 3v34h-17.398c-3.6016 0-6.5-2.8984-6.5-6.5v-47l36.801-32.098 36.801 32.102v46.996z"/>
</svg>
