<svg xmlns="http://www.w3.org/2000/svg" width="195.736" height="160.553" viewBox="0 0 146.802 120.415"><path fill="none" d="M0 0h146.802v120.415H0z"/><path d="M36.345 105.259v-6a3.558 3.558 0 00-3.76-3.8 3.702 3.702 0 00-3.359 1.7 3.511 3.511 0 00-3.16-1.7 3.161 3.161 0 00-2.799 1.42V95.7h-2.08v9.56h2.1v-5.3a2.236 2.236 0 012.34-2.54c1.38 0 2.08.9 2.08 2.52v5.32h2.1v-5.3a2.254 2.254 0 012.339-2.54c1.42 0 2.1.9 2.1 2.52v5.32zm31.076-9.56h-3.4V92.8h-2.1v2.9h-1.939v1.9h1.94v4.359c0 2.22.86 3.54 3.32 3.54a4.885 4.885 0 002.599-.74l-.6-1.78a3.839 3.839 0 01-1.84.54c-1.04 0-1.38-.64-1.38-1.6V97.6h3.4zm17.738-.24a2.82 2.82 0 00-2.52 1.4V95.7h-2.06v9.56h2.08v-5.36c0-1.58.68-2.46 2.04-2.46a3.388 3.388 0 011.3.24l.64-1.96a4.446 4.446 0 00-1.48-.26zm-26.817 1a7.148 7.148 0 00-3.9-1c-2.419 0-3.979 1.16-3.979 3.06 0 1.56 1.16 2.52 3.3 2.82l.98.14c1.14.16 1.68.46 1.68 1 0 .74-.76 1.16-2.18 1.16a5.092 5.092 0 01-3.18-1l-.98 1.62a6.897 6.897 0 004.14 1.24c2.76 0 4.36-1.3 4.36-3.12 0-1.68-1.26-2.56-3.34-2.86l-.98-.14c-.9-.12-1.62-.3-1.62-.94 0-.7.68-1.12 1.82-1.12a6.163 6.163 0 012.98.82zm55.713-1a2.82 2.82 0 00-2.52 1.4V95.7h-2.06v9.56h2.08v-5.36c0-1.58.68-2.46 2.04-2.46a3.389 3.389 0 011.3.24l.64-1.96a4.447 4.447 0 00-1.48-.26zm-26.797 5.02a4.83 4.83 0 005.1 5.02 5.007 5.007 0 003.44-1.14l-1-1.68a4.202 4.202 0 01-2.5.86 3.065 3.065 0 010-6.12 4.201 4.201 0 012.5.86l1-1.68a5.008 5.008 0 00-3.44-1.14 4.83 4.83 0 00-5.1 5.02zm19.478 0v-4.78h-2.08v1.16a3.626 3.626 0 00-3.02-1.4 5.025 5.025 0 000 10.04 3.626 3.626 0 003.02-1.4v1.16h2.08zm-7.74 0a2.894 2.894 0 112.9 3.06 2.867 2.867 0 01-2.9-3.06zM73.9 95.459a5.024 5.024 0 00.14 10.04 5.81 5.81 0 003.92-1.34l-1.02-1.54a4.554 4.554 0 01-2.78 1 2.655 2.655 0 01-2.86-2.34h7.1c.02-.26.04-.52.04-.8-.02-2.98-1.86-5.02-4.54-5.02zm-.04 1.86a2.374 2.374 0 012.42 2.32h-4.96a2.46 2.46 0 012.54-2.32zm52.173 3.16v-8.618h-2.08v4.999a3.626 3.626 0 00-3.02-1.4 5.025 5.025 0 000 10.039 3.626 3.626 0 003.02-1.4v1.16h2.08zm3.467 3.394a.954.954 0 01.376.075.976.976 0 01.307.204.957.957 0 01.208.302.934.934 0 010 .737.965.965 0 01-.208.302.998.998 0 01-.307.205.94.94 0 01-.376.076.968.968 0 01-.898-.583.936.936 0 010-.737.963.963 0 01.206-.302.95.95 0 01.309-.204.982.982 0 01.383-.075zm0 1.69a.707.707 0 00.286-.057.754.754 0 00.233-.159.745.745 0 000-1.048.738.738 0 00-.233-.157.717.717 0 00-.286-.057.747.747 0 00-.292.057.73.73 0 00-.237.157.744.744 0 000 1.048.745.745 0 00.237.159.737.737 0 00.292.058zm.056-1.184a.402.402 0 01.262.075.253.253 0 01.092.206.24.24 0 01-.074.18.35.35 0 01-.208.088l.289.333h-.226l-.268-.33h-.086v.33h-.189v-.882zm-.22.165v.235h.218a.213.213 0 00.118-.03.1.1 0 00.044-.089.098.098 0 00-.044-.087.215.215 0 00-.118-.029zm-11.042-4.065a2.894 2.894 0 112.9 3.06 2.867 2.867 0 01-2.9-3.06zm-70.23 0v-4.78h-2.08v1.16a3.626 3.626 0 00-3.02-1.4 5.025 5.025 0 000 10.04 3.626 3.626 0 003.02-1.4v1.16h2.08zm-7.74 0a2.894 2.894 0 112.9 3.06 2.867 2.867 0 01-2.9-3.06z" fill="#fff"/><path fill="#ff5f00" d="M57.651 22.854h31.5V79.46h-31.5z"/><path d="M59.652 51.157a35.938 35.938 0 0113.75-28.303 36 36 0 100 56.606 35.938 35.938 0 01-13.75-28.303z" fill="#eb001b"/><path d="M131.647 51.157A35.999 35.999 0 0173.402 79.46a36.005 36.005 0 000-56.606 35.999 35.999 0 0158.245 28.303zM128.212 73.464v-1.16h.467v-.235h-1.19v.236h.467v1.159zm2.31 0v-1.397h-.365l-.42.96-.419-.96h-.365v1.397h.258V72.41l.393.909h.267l.394-.911v1.056z" fill="#f79e1b"/></svg>