<?xml version="1.0" encoding="UTF-8"?>
<svg fill="#FFFFFF" width="100pt" height="100pt" version="1.1" viewBox="0 0 100 100" xmlns="http://www.w3.org/2000/svg">
 <g>
  <path d="m94.5 38.18c0-16.281-13.234-29.527-29.5-29.527h-30c-16.266 0-29.5 13.246-29.5 29.527v7.9258c0 12.699 8.0703 23.941 20.082 27.977l0.57812 0.19531-0.30859 0.53125c-1.582 2.7305-3.7266 7.0156-6.5586 13.094-0.42578 0.91406-0.23438 2.0156 0.47656 2.7305 0.71094 0.71094 1.8359 0.90625 2.7266 0.49609l33.879-15.496h8.625c16.266 0 29.5-13.246 29.5-29.527zm-4.8477 7.9258c0 13.609-11.059 24.68-24.652 24.68h-9.1523c-0.34766 0-0.69531 0.074219-1.0078 0.21875l-28.262 12.93 0.64062-1.2695c1.1602-2.3086 3.2578-6.3711 4.2461-7.6641l0.13672-0.125c0.63672-0.38672 1.0547-1.0273 1.1484-1.7656 0.16406-1.2852-0.70703-2.4727-1.9844-2.6953-11.828-2.0742-20.418-12.297-20.418-24.309v-7.9258c0-13.609 11.059-24.68 24.652-24.68l30-0.003906c13.594 0 24.652 11.07 24.652 24.68z"/>
  <path d="m27.332 36.844c-3.2891 0-5.9648 2.6758-5.9648 5.9648 0 3.2891 2.6758 5.9688 5.9648 5.9688 3.2891 0 5.9648-2.6758 5.9648-5.9688 0-3.2891-2.6758-5.9648-5.9648-5.9648z"/>
  <path d="m72.668 36.844c-3.2891 0-5.9648 2.6758-5.9648 5.9648 0 3.2891 2.6758 5.9688 5.9648 5.9688 3.2891 0 5.9648-2.6758 5.9648-5.9688 0-3.2891-2.6758-5.9648-5.9648-5.9648z"/>
  <path d="m50 36.844c-3.2891 0-5.9648 2.6758-5.9648 5.9648 0 3.293 2.6758 5.9688 5.9648 5.9688s5.9648-2.6758 5.9648-5.9688c0-3.2891-2.6758-5.9648-5.9648-5.9648z"/>
 </g>
</svg>
