<?xml version="1.0" encoding="UTF-8"?>
<svg fill="#fff" width="100pt" height="100pt" version="1.1" viewBox="0 0 100 100" xmlns="http://www.w3.org/2000/svg">
 <path d="m50 100c-27.613 0-50-22.387-50-50s22.387-50 50-50 50 22.387 50 50-22.387 50-50 50zm-8.2461-68.762c-0.33594-0.21484-0.72656-0.33203-1.1289-0.33203-1.1523 0-2.082 0.93359-2.082 2.082v34.023c0 0.39844 0.11328 0.79297 0.33203 1.1289 0.625 0.96484 1.9141 1.2422 2.8789 0.62109l26.367-17.012c0.24609-0.16016 0.46094-0.37109 0.62109-0.62109 0.62109-0.96484 0.34375-2.2539-0.62109-2.8789z" fill-rule="evenodd"/>
</svg>
